<svg version="1" xmlns="http://www.w3.org/2000/svg" width="682.667" height="682.667" viewBox="0 0 512.000000 512.000000"><path d="M191.7 6.8c-28.2 22.9-32.7 26.7-33.2 28.3-.4 1-3.7 20.1-7.5 42.5s-7.1 40.8-7.2 40.9c-.2.2-9.6-.2-20.9-.8l-20.6-1-12.6 7.2c-7 4-12.9 7.6-13.2 8.1-.5.8-10.8 58.2-12.2 68.3l-.6 3.7 32.7-.7c31.7-.6 32.6-.6 32.6 1.3 0 3-6.8 42.6-7.5 43.2-.3.3-15.2.8-33.2 1.1l-32.7.6-6.2 36c-3.5 19.7-6 36.4-5.6 37 .3.5 4.8 6.1 9.9 12.3l9.4 11.2 5.2-.6c12.6-1.3 36.9-3 37.1-2.5.2.4-3 19.7-7 43-5.7 33.2-7 42.9-6.2 44.5.6 1.2 6.9 11.2 14 22.3 10.4 16.3 13.4 20.3 15.2 20.3 2.3 0 78.9-10.9 79.3-11.3.1-.2 1.8-9.9 3.8-21.7 2-11.8 3.8-21.6 4-21.8.2-.2 26.1 20.6 57.6 46.2C297.7 490 323.7 511 324 511c.3 0 1.6-6 2.8-13.3 1.2-7.2 6.9-41.3 12.7-75.6 5.8-34.4 10.3-62.7 10-62.9-.2-.3-8.9.3-19.2 1.2-25 2.1-112.3 10.3-124.3 11.6-5.2.5-10.7 1-12.1 1h-2.6l5.3-31.2c24-142.4 38.8-230.4 39.7-236.1.9-5.8 1.3-6.7 3.1-6.7 1.2 0 8 .5 15.1 1 18.1 1.4 56.7 3.8 58.5 3.8 1.5-.1 32.4 1.7 54.9 3.1 7.5.4 11.4.3 11.7-.4.5-1.6 13.4-80.9 13.4-82.6 0-1.2-6-2.2-32.8-5.3l-32.9-3.8-27.6 13.8c-15.2 7.6-27.8 13.6-28 13.4-.3-.3.7-7.8 2.2-16.8 1.6-8.9 2.6-16.2 2.3-16.2C275 9 205.1.9 202.8.5c-2.3-.4-4.3.8-11.1 6.3z"/><path d="M315 203.5c-1 1.3-10.2 56.4-9.6 57.4.4.6 29.4 1.9 55.1 2.5l4.9.1 1.7-9c3.1-16.8 8.3-50.5 7.8-50.9-1-1-59.1-1.1-59.9-.1z"/></svg>